<svg xmlns="http://www.w3.org/2000/svg" viewBox="0 0 256 256"><rect width="256" height="256" fill="#030504"/><path d="M32 24V232M24 32H232" stroke="#273028" fill="none" stroke-width="1" stroke-linecap="square" stroke-linejoin="miter"/><path d="M56 24V232M24 56H232" stroke="#273028" fill="none" stroke-width="1" stroke-linecap="square" stroke-linejoin="miter"/><path d="M80 24V232M24 80H232" stroke="#273028" fill="none" stroke-width="1" stroke-linecap="square" stroke-linejoin="miter"/><path d="M104 24V232M24 104H232" stroke="#273028" fill="none" stroke-width="1" stroke-linecap="square" stroke-linejoin="miter"/><path d="M128 24V232M24 128H232" stroke="#273028" fill="none" stroke-width="1" stroke-linecap="square" stroke-linejoin="miter"/><path d="M152 24V232M24 152H232" stroke="#273028" fill="none" stroke-width="1" stroke-linecap="square" stroke-linejoin="miter"/><path d="M176 24V232M24 176H232" stroke="#273028" fill="none" stroke-width="1" stroke-linecap="square" stroke-linejoin="miter"/><path d="M200 24V232M24 200H232" stroke="#273028" fill="none" stroke-width="1" stroke-linecap="square" stroke-linejoin="miter"/><path d="M224 24V232M24 224H232" stroke="#273028" fill="none" stroke-width="1" stroke-linecap="square" stroke-linejoin="miter"/><path d="M51 226L74 169L111 185V226ZM205 226L182 169L145 185V226Z" stroke="#F5F7F2" fill="#0A0D0B" stroke-width="3" stroke-linecap="square" stroke-linejoin="miter"/><path d="M128 180V228M79 177l29 29M177 177l-29 29" stroke="#FFFFFF" fill="none" stroke-width="3" stroke-linecap="square" stroke-linejoin="miter"/><path d="M65 92L86 51L123 39V197L91 188L70 163ZM191 92L170 51L133 39V197L165 188L186 163Z" stroke="#F5F7F2" fill="#080B09" stroke-width="4" stroke-linecap="square" stroke-linejoin="miter"/><path d="M128 39V198M86 51l27 32M170 51l-27 32" stroke="#FFFFFF" fill="none" stroke-width="2" stroke-linecap="square" stroke-linejoin="miter"/><path d="M96 101h64v9H96zM96 126h64v9H96z" stroke="none" fill="#FFFFFF" stroke-width="0" stroke-linecap="square" stroke-linejoin="miter"/><circle cx="128" cy="207" r="14" fill="#050705" stroke="#FFFFFF" stroke-width="2"/><path d="M116 212c5-16 19-16 24 0M119 202h18" stroke="#FFFFFF" fill="none" stroke-width="2" stroke-linecap="square" stroke-linejoin="miter"/><path d="M46 17H210L239 46V210L210 239H46L17 210V46Z" stroke="#F5F7F2" fill="none" stroke-width="4" stroke-linecap="square" stroke-linejoin="miter"/><path d="M75 25h106M75 231h106M25 75v106M231 75v106" stroke="#FFFFFF" fill="none" stroke-width="2" stroke-linecap="square" stroke-linejoin="miter"/><metadata id="statics-operator-traits">W3sibGFiZWwiOiJGaWVsZCIsInZhbHVlIjoiR3JpZCIsIm1heCI6bnVsbH0seyJsYWJlbCI6IkJvdW5kYXJ5IiwidmFsdWUiOiJQZWcgRnJhbWUiLCJtYXgiOm51bGx9LHsibGFiZWwiOiJTaGVsbCIsInZhbHVlIjoiU3BsaXQgSGVhZCIsIm1heCI6bnVsbH0seyJsYWJlbCI6IkludGVyZmFjZSIsInZhbHVlIjoiRXF1YWwgU2lnbiIsIm1heCI6bnVsbH0seyJsYWJlbCI6Ik1hbnRsZSIsInZhbHVlIjoiU3BsaXQgTWFudGxlIiwibWF4IjpudWxsfSx7ImxhYmVsIjoiVGVsZW1ldHJ5IiwidmFsdWUiOiJOb25lIiwibWF4IjpudWxsfSx7ImxhYmVsIjoiU2lnaWwiLCJ2YWx1ZSI6IkxpcXVpZGl0eSBNYXJrIiwibWF4IjpudWxsfSx7ImxhYmVsIjoiU2lnbmFsIiwidmFsdWUiOiJXaGl0ZSBPbmx5IiwibWF4IjpudWxsfV0=</metadata></svg>
