<svg xmlns="http://www.w3.org/2000/svg" viewBox="0 0 256 256"><rect width="256" height="256" fill="#030504"/><path d="M74 52h4" stroke="#FFB000" fill="none" stroke-width="2" stroke-linecap="square" stroke-linejoin="miter"/><path d="M53 208h15" stroke="#39413A" fill="none" stroke-width="1" stroke-linecap="square" stroke-linejoin="miter"/><path d="M34 68h6" stroke="#39413A" fill="none" stroke-width="1" stroke-linecap="square" stroke-linejoin="miter"/><path d="M120 123h6" stroke="#39413A" fill="none" stroke-width="1" stroke-linecap="square" stroke-linejoin="miter"/><path d="M178 58h9" stroke="#39413A" fill="none" stroke-width="1" stroke-linecap="square" stroke-linejoin="miter"/><path d="M38 151h10" stroke="#FFB000" fill="none" stroke-width="1" stroke-linecap="square" stroke-linejoin="miter"/><path d="M60 55h15" stroke="#39413A" fill="none" stroke-width="1" stroke-linecap="square" stroke-linejoin="miter"/><path d="M49 131h5" stroke="#39413A" fill="none" stroke-width="2" stroke-linecap="square" stroke-linejoin="miter"/><path d="M205 57h7" stroke="#39413A" fill="none" stroke-width="1" stroke-linecap="square" stroke-linejoin="miter"/><path d="M65 122h14" stroke="#39413A" fill="none" stroke-width="1" stroke-linecap="square" stroke-linejoin="miter"/><path d="M120 34h6" stroke="#FFB000" fill="none" stroke-width="1" stroke-linecap="square" stroke-linejoin="miter"/><path d="M41 191h8" stroke="#39413A" fill="none" stroke-width="1" stroke-linecap="square" stroke-linejoin="miter"/><path d="M148 209h4" stroke="#39413A" fill="none" stroke-width="1" stroke-linecap="square" stroke-linejoin="miter"/><path d="M52 48h9" stroke="#39413A" fill="none" stroke-width="1" stroke-linecap="square" stroke-linejoin="miter"/><path d="M128 123h4" stroke="#39413A" fill="none" stroke-width="2" stroke-linecap="square" stroke-linejoin="miter"/><path d="M54 130h12" stroke="#FFB000" fill="none" stroke-width="1" stroke-linecap="square" stroke-linejoin="miter"/><path d="M119 44h10" stroke="#39413A" fill="none" stroke-width="1" stroke-linecap="square" stroke-linejoin="miter"/><path d="M31 176h14" stroke="#39413A" fill="none" stroke-width="1" stroke-linecap="square" stroke-linejoin="miter"/><path d="M188 159h5" stroke="#39413A" fill="none" stroke-width="1" stroke-linecap="square" stroke-linejoin="miter"/><path d="M206 164h13" stroke="#39413A" fill="none" stroke-width="1" stroke-linecap="square" stroke-linejoin="miter"/><path d="M31 81h5" stroke="#FFB000" fill="none" stroke-width="1" stroke-linecap="square" stroke-linejoin="miter"/><path d="M120 89h12" stroke="#39413A" fill="none" stroke-width="2" stroke-linecap="square" stroke-linejoin="miter"/><path d="M127 191h7" stroke="#39413A" fill="none" stroke-width="1" stroke-linecap="square" stroke-linejoin="miter"/><path d="M41 143h13" stroke="#39413A" fill="none" stroke-width="1" stroke-linecap="square" stroke-linejoin="miter"/><path d="M28 105h40v34H28zM188 105h40v34h-40z" stroke="#F5F7F2" fill="none" stroke-width="2" stroke-linecap="square" stroke-linejoin="miter"/><path d="M35 129l8-12 7 7 11-13M195 128l9-18 7 13 10-9" stroke="#FFB000" fill="none" stroke-width="2" stroke-linecap="square" stroke-linejoin="miter"/><path d="M59 224L74 171L100 181H156L182 171L197 224Z" stroke="#F5F7F2" fill="#0A0D0B" stroke-width="4" stroke-linecap="square" stroke-linejoin="miter"/><path d="M76 184h25v40M180 184h-25v40M104 197h48" stroke="#FFB000" fill="none" stroke-width="3" stroke-linecap="square" stroke-linejoin="miter"/><path d="M70 111C70 66 92 43 128 43S186 66 186 111V154C186 181 165 195 128 195S70 181 70 154Z" stroke="#F5F7F2" fill="#080B09" stroke-width="4" stroke-linecap="square" stroke-linejoin="miter"/><path d="M79 82C98 59 158 59 177 82" stroke="#FFB000" fill="none" stroke-width="2" stroke-linecap="square" stroke-linejoin="miter"/><path d="M102 96h13v13h-13zM140 96h13v13h-13zM121 115h13v13h-13zM102 134h13v13h-13zM140 134h13v13h-13z" stroke="none" fill="#FFB000" stroke-width="0" stroke-linecap="square" stroke-linejoin="miter"/><path d="M121 96h13v13h-13zM102 115h13v13h-13zM140 115h13v13h-13zM121 134h13v13h-13z" stroke="none" fill="#F5F7F2" stroke-width="0" stroke-linecap="square" stroke-linejoin="miter"/><circle cx="128" cy="207" r="14" fill="#050705" stroke="#FFB000" stroke-width="2"/><path d="M116 212c5-16 19-16 24 0M119 202h18" stroke="#FFB000" fill="none" stroke-width="2" stroke-linecap="square" stroke-linejoin="miter"/><path d="M128 10L224 40V124C224 184 184 226 128 245C72 226 32 184 32 124V40Z" stroke="#F5F7F2" fill="none" stroke-width="4" stroke-linecap="square" stroke-linejoin="miter"/><path d="M128 21L213 48" stroke="#FFB000" fill="none" stroke-width="2" stroke-linecap="square" stroke-linejoin="miter"/><metadata id="statics-operator-traits">W3sibGFiZWwiOiJGaWVsZCIsInZhbHVlIjoiU3RhdGljIEZpZWxkIiwibWF4IjpudWxsfSx7ImxhYmVsIjoiQm91bmRhcnkiLCJ2YWx1ZSI6IlNoaWVsZCBSaW5nIiwibWF4IjpudWxsfSx7ImxhYmVsIjoiU2hlbGwiLCJ2YWx1ZSI6IlJvdW5kIFNoZWxsIiwibWF4IjpudWxsfSx7ImxhYmVsIjoiSW50ZXJmYWNlIiwidmFsdWUiOiJCYXNrZXQgR3JpZCIsIm1heCI6bnVsbH0seyJsYWJlbCI6Ik1hbnRsZSIsInZhbHVlIjoiQXJtb3IgTmVjayIsIm1heCI6bnVsbH0seyJsYWJlbCI6IlRlbGVtZXRyeSIsInZhbHVlIjoiWWllbGQgUmVhZG91dCIsIm1heCI6bnVsbH0seyJsYWJlbCI6IlNpZ2lsIiwidmFsdWUiOiJMaXF1aWRpdHkgTWFyayIsIm1heCI6bnVsbH0seyJsYWJlbCI6IlNpZ25hbCIsInZhbHVlIjoiQW1iZXIiLCJtYXgiOm51bGx9XQ==</metadata></svg>
