<svg xmlns="http://www.w3.org/2000/svg" viewBox="0 0 256 256"><rect width="256" height="256" fill="#030504"/><path d="M30 48H226M30 58H198M58 68H226M30 188H201M55 198H226M30 208H183" stroke="#273028" fill="none" stroke-width="4" stroke-linecap="square" stroke-linejoin="miter"/><path d="M30 48H91M156 68H226M30 208H79" stroke="#FFFFFF" fill="none" stroke-width="4" stroke-linecap="square" stroke-linejoin="miter"/><path d="M30 103h38v44H30zM188 103h38v44h-38zM37 136v-16h6v16M47 136v-26h6v26M57 136v-10h5v10M195 135h24M195 126h17M195 117h9" stroke="#FFFFFF" fill="none" stroke-width="2" stroke-linecap="square" stroke-linejoin="miter"/><path d="M52 226L67 164L91 146L105 178H151L165 146L189 164L204 226Z" stroke="#F5F7F2" fill="#0A0D0B" stroke-width="3" stroke-linecap="square" stroke-linejoin="miter"/><path d="M67 164L98 194M189 164L158 194" stroke="#FFFFFF" fill="none" stroke-width="2" stroke-linecap="square" stroke-linejoin="miter"/><path d="M55 79L84 44H172L201 79L190 181L162 205H94L66 181Z" stroke="#F5F7F2" fill="#080B09" stroke-width="6" stroke-linecap="square" stroke-linejoin="miter"/><path d="M84 44l18 35h52l18-35M66 181l35-32h54l35 32" stroke="#FFFFFF" fill="none" stroke-width="3" stroke-linecap="square" stroke-linejoin="miter"/><path d="M108 99V138M148 99V138" stroke="#FFFFFF" fill="none" stroke-width="8" stroke-linecap="square" stroke-linejoin="miter"/><path d="M128 190l5 11 12 1-9 8 3 12-11-6-11 6 3-12-9-8 12-1Z" stroke="#FFFFFF" fill="#050705" stroke-width="2" stroke-linecap="square" stroke-linejoin="miter"/><path d="M128 10L224 40V124C224 184 184 226 128 245C72 226 32 184 32 124V40Z" stroke="#F5F7F2" fill="none" stroke-width="4" stroke-linecap="square" stroke-linejoin="miter"/><path d="M128 21L213 48" stroke="#FFFFFF" fill="none" stroke-width="2" stroke-linecap="square" stroke-linejoin="miter"/><metadata id="statics-operator-traits">W3sibGFiZWwiOiJGaWVsZCIsInZhbHVlIjoiU2lnbmFsIEJhbmRzIiwibWF4IjpudWxsfSx7ImxhYmVsIjoiQm91bmRhcnkiLCJ2YWx1ZSI6IlNoaWVsZCBSaW5nIiwibWF4IjpudWxsfSx7ImxhYmVsIjoiU2hlbGwiLCJ2YWx1ZSI6IkhlYXZ5IFBsYXRlIiwibWF4IjpudWxsfSx7ImxhYmVsIjoiSW50ZXJmYWNlIiwidmFsdWUiOiJEb3VibGUgUGlwZSIsIm1heCI6bnVsbH0seyJsYWJlbCI6Ik1hbnRsZSIsInZhbHVlIjoiSG9vZCBXcmFwIiwibWF4IjpudWxsfSx7ImxhYmVsIjoiVGVsZW1ldHJ5IiwidmFsdWUiOiJMaXF1aWRpdHkgUGFuZWwiLCJtYXgiOm51bGx9LHsibGFiZWwiOiJTaWdpbCIsInZhbHVlIjoiU3Rha2luZyBTaWdpbCIsIm1heCI6bnVsbH0seyJsYWJlbCI6IlNpZ25hbCIsInZhbHVlIjoiV2hpdGUgT25seSIsIm1heCI6bnVsbH1d</metadata></svg>
