<svg xmlns="http://www.w3.org/2000/svg" viewBox="0 0 256 256"><rect width="256" height="256" fill="#030504"/><path d="M125 93h3" stroke="#FFB000" fill="none" stroke-width="2" stroke-linecap="square" stroke-linejoin="miter"/><path d="M205 145h6" stroke="#39413A" fill="none" stroke-width="1" stroke-linecap="square" stroke-linejoin="miter"/><path d="M33 63h5" stroke="#39413A" fill="none" stroke-width="1" stroke-linecap="square" stroke-linejoin="miter"/><path d="M61 35h3" stroke="#39413A" fill="none" stroke-width="1" stroke-linecap="square" stroke-linejoin="miter"/><path d="M157 120h10" stroke="#39413A" fill="none" stroke-width="1" stroke-linecap="square" stroke-linejoin="miter"/><path d="M164 28h15" stroke="#FFB000" fill="none" stroke-width="1" stroke-linecap="square" stroke-linejoin="miter"/><path d="M126 93h3" stroke="#39413A" fill="none" stroke-width="1" stroke-linecap="square" stroke-linejoin="miter"/><path d="M76 187h7" stroke="#39413A" fill="none" stroke-width="2" stroke-linecap="square" stroke-linejoin="miter"/><path d="M142 160h13" stroke="#39413A" fill="none" stroke-width="1" stroke-linecap="square" stroke-linejoin="miter"/><path d="M60 59h5" stroke="#39413A" fill="none" stroke-width="1" stroke-linecap="square" stroke-linejoin="miter"/><path d="M32 113h9" stroke="#FFB000" fill="none" stroke-width="1" stroke-linecap="square" stroke-linejoin="miter"/><path d="M117 131h9" stroke="#39413A" fill="none" stroke-width="1" stroke-linecap="square" stroke-linejoin="miter"/><path d="M215 85h7" stroke="#39413A" fill="none" stroke-width="1" stroke-linecap="square" stroke-linejoin="miter"/><path d="M90 201h4" stroke="#39413A" fill="none" stroke-width="1" stroke-linecap="square" stroke-linejoin="miter"/><path d="M184 116h9" stroke="#39413A" fill="none" stroke-width="2" stroke-linecap="square" stroke-linejoin="miter"/><path d="M157 134h6" stroke="#FFB000" fill="none" stroke-width="1" stroke-linecap="square" stroke-linejoin="miter"/><path d="M42 34h4" stroke="#39413A" fill="none" stroke-width="1" stroke-linecap="square" stroke-linejoin="miter"/><path d="M110 190h8" stroke="#39413A" fill="none" stroke-width="1" stroke-linecap="square" stroke-linejoin="miter"/><path d="M128 32h5" stroke="#39413A" fill="none" stroke-width="1" stroke-linecap="square" stroke-linejoin="miter"/><path d="M68 29h12" stroke="#39413A" fill="none" stroke-width="1" stroke-linecap="square" stroke-linejoin="miter"/><path d="M198 73h14" stroke="#FFB000" fill="none" stroke-width="1" stroke-linecap="square" stroke-linejoin="miter"/><path d="M113 174h7" stroke="#39413A" fill="none" stroke-width="2" stroke-linecap="square" stroke-linejoin="miter"/><path d="M131 120h9" stroke="#39413A" fill="none" stroke-width="1" stroke-linecap="square" stroke-linejoin="miter"/><path d="M31 59h5" stroke="#39413A" fill="none" stroke-width="1" stroke-linecap="square" stroke-linejoin="miter"/><path d="M30 103h38v44H30zM188 103h38v44h-38zM37 136v-16h6v16M47 136v-26h6v26M57 136v-10h5v10M195 135h24M195 126h17M195 117h9" stroke="#FFB000" fill="none" stroke-width="2" stroke-linecap="square" stroke-linejoin="miter"/><path d="M59 224L74 171L100 181H156L182 171L197 224Z" stroke="#F5F7F2" fill="#0A0D0B" stroke-width="4" stroke-linecap="square" stroke-linejoin="miter"/><path d="M76 184h25v40M180 184h-25v40M104 197h48" stroke="#FFB000" fill="none" stroke-width="3" stroke-linecap="square" stroke-linejoin="miter"/><path d="M65 92L86 51L123 39V197L91 188L70 163ZM191 92L170 51L133 39V197L165 188L186 163Z" stroke="#F5F7F2" fill="#080B09" stroke-width="4" stroke-linecap="square" stroke-linejoin="miter"/><path d="M128 39V198M86 51l27 32M170 51l-27 32" stroke="#FFB000" fill="none" stroke-width="2" stroke-linecap="square" stroke-linejoin="miter"/><path d="M102 96h13v13h-13zM140 96h13v13h-13zM121 115h13v13h-13zM102 134h13v13h-13zM140 134h13v13h-13z" stroke="none" fill="#FFB000" stroke-width="0" stroke-linecap="square" stroke-linejoin="miter"/><path d="M121 96h13v13h-13zM102 115h13v13h-13zM140 115h13v13h-13zM121 134h13v13h-13z" stroke="none" fill="#F5F7F2" stroke-width="0" stroke-linecap="square" stroke-linejoin="miter"/><circle cx="128" cy="128" r="113" fill="none" stroke="#F5F7F2" stroke-width="4"/><metadata id="statics-operator-traits">W3sibGFiZWwiOiJGaWVsZCIsInZhbHVlIjoiU3RhdGljIEZpZWxkIiwibWF4IjpudWxsfSx7ImxhYmVsIjoiQm91bmRhcnkiLCJ2YWx1ZSI6IlNpbmdsZSBSaW5nIiwibWF4IjpudWxsfSx7ImxhYmVsIjoiU2hlbGwiLCJ2YWx1ZSI6IlNwbGl0IEhlYWQiLCJtYXgiOm51bGx9LHsibGFiZWwiOiJJbnRlcmZhY2UiLCJ2YWx1ZSI6IkJhc2tldCBHcmlkIiwibWF4IjpudWxsfSx7ImxhYmVsIjoiTWFudGxlIiwidmFsdWUiOiJBcm1vciBOZWNrIiwibWF4IjpudWxsfSx7ImxhYmVsIjoiVGVsZW1ldHJ5IiwidmFsdWUiOiJMaXF1aWRpdHkgUGFuZWwiLCJtYXgiOm51bGx9LHsibGFiZWwiOiJTaWdpbCIsInZhbHVlIjoiRW1wdHkiLCJtYXgiOm51bGx9LHsibGFiZWwiOiJTaWduYWwiLCJ2YWx1ZSI6IkFtYmVyIiwibWF4IjpudWxsfV0=</metadata></svg>
