<svg xmlns="http://www.w3.org/2000/svg" viewBox="0 0 256 256"><rect width="256" height="256" fill="#030504"/><path d="M51 110h5" stroke="#B55CFF" fill="none" stroke-width="2" stroke-linecap="square" stroke-linejoin="miter"/><path d="M109 116h5" stroke="#39413A" fill="none" stroke-width="1" stroke-linecap="square" stroke-linejoin="miter"/><path d="M58 38h15" stroke="#39413A" fill="none" stroke-width="1" stroke-linecap="square" stroke-linejoin="miter"/><path d="M72 196h11" stroke="#39413A" fill="none" stroke-width="1" stroke-linecap="square" stroke-linejoin="miter"/><path d="M78 82h11" stroke="#39413A" fill="none" stroke-width="1" stroke-linecap="square" stroke-linejoin="miter"/><path d="M154 33h4" stroke="#B55CFF" fill="none" stroke-width="1" stroke-linecap="square" stroke-linejoin="miter"/><path d="M202 56h11" stroke="#39413A" fill="none" stroke-width="1" stroke-linecap="square" stroke-linejoin="miter"/><path d="M107 160h6" stroke="#39413A" fill="none" stroke-width="2" stroke-linecap="square" stroke-linejoin="miter"/><path d="M113 32h12" stroke="#39413A" fill="none" stroke-width="1" stroke-linecap="square" stroke-linejoin="miter"/><path d="M225 179h4" stroke="#39413A" fill="none" stroke-width="1" stroke-linecap="square" stroke-linejoin="miter"/><path d="M193 88h13" stroke="#B55CFF" fill="none" stroke-width="1" stroke-linecap="square" stroke-linejoin="miter"/><path d="M65 42h15" stroke="#39413A" fill="none" stroke-width="1" stroke-linecap="square" stroke-linejoin="miter"/><path d="M220 67h8" stroke="#39413A" fill="none" stroke-width="1" stroke-linecap="square" stroke-linejoin="miter"/><path d="M53 200h10" stroke="#39413A" fill="none" stroke-width="1" stroke-linecap="square" stroke-linejoin="miter"/><path d="M157 50h5" stroke="#39413A" fill="none" stroke-width="2" stroke-linecap="square" stroke-linejoin="miter"/><path d="M219 172h11" stroke="#B55CFF" fill="none" stroke-width="1" stroke-linecap="square" stroke-linejoin="miter"/><path d="M176 51h12" stroke="#39413A" fill="none" stroke-width="1" stroke-linecap="square" stroke-linejoin="miter"/><path d="M85 183h5" stroke="#39413A" fill="none" stroke-width="1" stroke-linecap="square" stroke-linejoin="miter"/><path d="M39 77h10" stroke="#39413A" fill="none" stroke-width="1" stroke-linecap="square" stroke-linejoin="miter"/><path d="M50 53h3" stroke="#39413A" fill="none" stroke-width="1" stroke-linecap="square" stroke-linejoin="miter"/><path d="M197 82h9" stroke="#B55CFF" fill="none" stroke-width="1" stroke-linecap="square" stroke-linejoin="miter"/><path d="M47 75h10" stroke="#39413A" fill="none" stroke-width="2" stroke-linecap="square" stroke-linejoin="miter"/><path d="M169 29h7" stroke="#39413A" fill="none" stroke-width="1" stroke-linecap="square" stroke-linejoin="miter"/><path d="M48 121h4" stroke="#39413A" fill="none" stroke-width="1" stroke-linecap="square" stroke-linejoin="miter"/><path d="M28 105h40v34H28zM188 105h40v34h-40zM35 113h26M35 122h18M195 113h26M203 122h18" stroke="#B55CFF" fill="none" stroke-width="2" stroke-linecap="square" stroke-linejoin="miter"/><path d="M35 132h8M53 132h8M195 132h8M213 132h8" stroke="#F5F7F2" fill="none" stroke-width="2" stroke-linecap="square" stroke-linejoin="miter"/><path d="M47 227L67 173L98 181H158L189 173L209 227Z" stroke="#F5F7F2" fill="#0A0D0B" stroke-width="3" stroke-linecap="square" stroke-linejoin="miter"/><path d="M64 195h128M58 211h140M88 183l-11 44M168 183l11 44" stroke="#555F56" fill="none" stroke-width="2" stroke-linecap="square" stroke-linejoin="miter"/><path d="M54 116L72 66L101 40H155L184 66L202 116L186 188L158 205H98L70 188Z" stroke="#F5F7F2" fill="#080B09" stroke-width="4" stroke-linecap="square" stroke-linejoin="miter"/><path d="M72 66l28 26-13 91M184 66l-28 26 13 91" stroke="#B55CFF" fill="none" stroke-width="2" stroke-linecap="square" stroke-linejoin="miter"/><path d="M96 101h64v9H96zM96 126h64v9H96z" stroke="none" fill="#B55CFF" stroke-width="0" stroke-linecap="square" stroke-linejoin="miter"/><circle cx="128" cy="207" r="14" fill="#050705" stroke="#B55CFF" stroke-width="2"/><path d="M116 212c5-16 19-16 24 0M119 202h18" stroke="#B55CFF" fill="none" stroke-width="2" stroke-linecap="square" stroke-linejoin="miter"/><circle cx="128" cy="128" r="114" fill="none" stroke="#F5F7F2" stroke-width="3"/><circle cx="128" cy="128" r="105" fill="none" stroke="#B55CFF" stroke-width="2"/><metadata id="statics-operator-traits">W3sibGFiZWwiOiJGaWVsZCIsInZhbHVlIjoiU3RhdGljIEZpZWxkIiwibWF4IjpudWxsfSx7ImxhYmVsIjoiQm91bmRhcnkiLCJ2YWx1ZSI6IkRvdWJsZSBSaW5nIiwibWF4IjpudWxsfSx7ImxhYmVsIjoiU2hlbGwiLCJ2YWx1ZSI6Ik9wZXJhdG9yIEhvb2QiLCJtYXgiOm51bGx9LHsibGFiZWwiOiJJbnRlcmZhY2UiLCJ2YWx1ZSI6IkVxdWFsIFNpZ24iLCJtYXgiOm51bGx9LHsibGFiZWwiOiJNYW50bGUiLCJ2YWx1ZSI6IlRhY3RpY2FsIENvYXQiLCJtYXgiOm51bGx9LHsibGFiZWwiOiJUZWxlbWV0cnkiLCJ2YWx1ZSI6IlJpc2sgUmVhZG91dCIsIm1heCI6bnVsbH0seyJsYWJlbCI6IlNpZ2lsIiwidmFsdWUiOiJMaXF1aWRpdHkgTWFyayIsIm1heCI6bnVsbH0seyJsYWJlbCI6IlNpZ25hbCIsInZhbHVlIjoiUHVycGxlIiwibWF4IjpudWxsfV0=</metadata></svg>
