<svg xmlns="http://www.w3.org/2000/svg" viewBox="0 0 256 256"><rect width="256" height="256" fill="#030504"/><path d="M30 48H226M30 58H198M58 68H226M30 188H201M55 198H226M30 208H183" stroke="#273028" fill="none" stroke-width="4" stroke-linecap="square" stroke-linejoin="miter"/><path d="M30 48H91M156 68H226M30 208H79" stroke="#FF3344" fill="none" stroke-width="4" stroke-linecap="square" stroke-linejoin="miter"/><path d="M29 102h39v12H29zM29 120h27v9H29zM188 96h39v12h-39zM199 114h28v9h-28z" stroke="#FF3344" fill="none" stroke-width="2" stroke-linecap="square" stroke-linejoin="miter"/><path d="M51 226L74 169L111 185V226ZM205 226L182 169L145 185V226Z" stroke="#F5F7F2" fill="#0A0D0B" stroke-width="3" stroke-linecap="square" stroke-linejoin="miter"/><path d="M128 180V228M79 177l29 29M177 177l-29 29" stroke="#FF3344" fill="none" stroke-width="3" stroke-linecap="square" stroke-linejoin="miter"/><path d="M64 58H192V181L166 199H90L64 181Z" stroke="#F5F7F2" fill="#080B09" stroke-width="4" stroke-linecap="square" stroke-linejoin="miter"/><path d="M75 73h106v73H75zM90 181h76" stroke="#FF3344" fill="none" stroke-width="2" stroke-linecap="square" stroke-linejoin="miter"/><path d="M102 96h13v13h-13zM140 96h13v13h-13zM121 115h13v13h-13zM102 134h13v13h-13zM140 134h13v13h-13z" stroke="none" fill="#FF3344" stroke-width="0" stroke-linecap="square" stroke-linejoin="miter"/><path d="M121 96h13v13h-13zM102 115h13v13h-13zM140 115h13v13h-13zM121 134h13v13h-13z" stroke="none" fill="#F5F7F2" stroke-width="0" stroke-linecap="square" stroke-linejoin="miter"/><path d="M114 193h28v28h-28z" stroke="#FF3344" fill="#050705" stroke-width="2" stroke-linecap="square" stroke-linejoin="miter"/><path d="M119 198h7v7h-7zM130 198h7v7h-7zM119 209h7v7h-7zM130 209h7v7h-7z" fill="#FF3344"/><circle cx="128" cy="128" r="112" stroke="#F5F7F2" fill="none" stroke-width="5" stroke-linecap="square" stroke-linejoin="miter" stroke-dasharray="38 13"/><circle cx="128" cy="128" r="103" stroke="#FF3344" fill="none" stroke-width="1" stroke-linecap="square" stroke-linejoin="miter" stroke-dasharray="7 18"/><metadata id="statics-operator-traits">W3sibGFiZWwiOiJGaWVsZCIsInZhbHVlIjoiU2lnbmFsIEJhbmRzIiwibWF4IjpudWxsfSx7ImxhYmVsIjoiQm91bmRhcnkiLCJ2YWx1ZSI6IkJyb2tlbiBSaW5nIiwibWF4IjpudWxsfSx7ImxhYmVsIjoiU2hlbGwiLCJ2YWx1ZSI6IkJveCBWaXNvciIsIm1heCI6bnVsbH0seyJsYWJlbCI6IkludGVyZmFjZSIsInZhbHVlIjoiQmFza2V0IEdyaWQiLCJtYXgiOm51bGx9LHsibGFiZWwiOiJNYW50bGUiLCJ2YWx1ZSI6IlNwbGl0IE1hbnRsZSIsIm1heCI6bnVsbH0seyJsYWJlbCI6IlRlbGVtZXRyeSIsInZhbHVlIjoiTWV0cmljIEJsb2NrcyIsIm1heCI6bnVsbH0seyJsYWJlbCI6IlNpZ2lsIiwidmFsdWUiOiJCYXNrZXQgQ29yZSIsIm1heCI6bnVsbH0seyJsYWJlbCI6IlNpZ25hbCIsInZhbHVlIjoiUmVkIiwibWF4IjpudWxsfV0=</metadata></svg>
