<svg xmlns="http://www.w3.org/2000/svg" viewBox="0 0 256 256"><rect width="256" height="256" fill="#030504"/><path d="M20 132H236V236H20Z" fill="#0E130F"/><path d="M20 132H236" stroke="#FFB000" fill="none" stroke-width="2" stroke-linecap="square" stroke-linejoin="miter"/><path d="M35 153H221M44 174H212M56 195H200" stroke="#273028" fill="none" stroke-width="1" stroke-linecap="square" stroke-linejoin="miter"/><path d="M30 103h38v44H30zM188 103h38v44h-38zM37 136v-16h6v16M47 136v-26h6v26M57 136v-10h5v10M195 135h24M195 126h17M195 117h9" stroke="#FFB000" fill="none" stroke-width="2" stroke-linecap="square" stroke-linejoin="miter"/><path d="M59 224L74 171L100 181H156L182 171L197 224Z" stroke="#F5F7F2" fill="#0A0D0B" stroke-width="4" stroke-linecap="square" stroke-linejoin="miter"/><path d="M76 184h25v40M180 184h-25v40M104 197h48" stroke="#FFB000" fill="none" stroke-width="3" stroke-linecap="square" stroke-linejoin="miter"/><path d="M65 92L86 51L123 39V197L91 188L70 163ZM191 92L170 51L133 39V197L165 188L186 163Z" stroke="#F5F7F2" fill="#080B09" stroke-width="4" stroke-linecap="square" stroke-linejoin="miter"/><path d="M128 39V198M86 51l27 32M170 51l-27 32" stroke="#FFB000" fill="none" stroke-width="2" stroke-linecap="square" stroke-linejoin="miter"/><path d="M96 101h64v9H96zM96 126h64v9H96z" stroke="none" fill="#FFB000" stroke-width="0" stroke-linecap="square" stroke-linejoin="miter"/><circle cx="128" cy="207" r="14" fill="#050705" stroke="#FFB000" stroke-width="2"/><path d="M119 202h18M119 211h18" stroke="#FFB000" fill="none" stroke-width="3" stroke-linecap="square" stroke-linejoin="miter"/><circle cx="128" cy="128" r="113" fill="none" stroke="#F5F7F2" stroke-width="4"/><metadata id="statics-operator-traits">W3sibGFiZWwiOiJGaWVsZCIsInZhbHVlIjoiU3BsaXQgSG9yaXpvbiIsIm1heCI6bnVsbH0seyJsYWJlbCI6IkJvdW5kYXJ5IiwidmFsdWUiOiJTaW5nbGUgUmluZyIsIm1heCI6bnVsbH0seyJsYWJlbCI6IlNoZWxsIiwidmFsdWUiOiJTcGxpdCBIZWFkIiwibWF4IjpudWxsfSx7ImxhYmVsIjoiSW50ZXJmYWNlIiwidmFsdWUiOiJFcXVhbCBTaWduIiwibWF4IjpudWxsfSx7ImxhYmVsIjoiTWFudGxlIiwidmFsdWUiOiJBcm1vciBOZWNrIiwibWF4IjpudWxsfSx7ImxhYmVsIjoiVGVsZW1ldHJ5IiwidmFsdWUiOiJMaXF1aWRpdHkgUGFuZWwiLCJtYXgiOm51bGx9LHsibGFiZWwiOiJTaWdpbCIsInZhbHVlIjoiRXF1YWwgU2VhbCIsIm1heCI6bnVsbH0seyJsYWJlbCI6IlNpZ25hbCIsInZhbHVlIjoiQW1iZXIiLCJtYXgiOm51bGx9XQ==</metadata></svg>
