<svg xmlns="http://www.w3.org/2000/svg" viewBox="0 0 256 256"><rect width="256" height="256" fill="#030504"/><path d="M28 38H91V78H28ZM165 38H228V78H165ZM28 180H76V220H28Z" stroke="#273028" fill="none" stroke-width="1" stroke-linecap="square" stroke-linejoin="miter"/><path d="M37 50h36M37 59h24M174 50h35M174 59h20M37 192h28M37 201h18" stroke="#B55CFF" fill="none" stroke-width="2" stroke-linecap="square" stroke-linejoin="miter"/><path d="M28 145L39 132L50 138L61 113L72 124" stroke="#B55CFF" fill="none" stroke-width="2" stroke-linecap="square" stroke-linejoin="miter"/><path d="M184 130L195 119L206 136L217 109L228 118" stroke="#B55CFF" fill="none" stroke-width="2" stroke-linecap="square" stroke-linejoin="miter"/><path d="M71 225L82 160L108 179H148L174 160L185 225Z" stroke="#F5F7F2" fill="#0A0D0B" stroke-width="4" stroke-linecap="square" stroke-linejoin="miter"/><path d="M95 179v42M161 179v42" stroke="#B55CFF" fill="none" stroke-width="2" stroke-linecap="square" stroke-linejoin="miter"/><path d="M70 111C70 66 92 43 128 43S186 66 186 111V154C186 181 165 195 128 195S70 181 70 154Z" stroke="#F5F7F2" fill="#080B09" stroke-width="4" stroke-linecap="square" stroke-linejoin="miter"/><path d="M79 82C98 59 158 59 177 82" stroke="#B55CFF" fill="none" stroke-width="2" stroke-linecap="square" stroke-linejoin="miter"/><path d="M102 96h13v13h-13zM140 96h13v13h-13zM121 115h13v13h-13zM102 134h13v13h-13zM140 134h13v13h-13z" stroke="none" fill="#B55CFF" stroke-width="0" stroke-linecap="square" stroke-linejoin="miter"/><path d="M121 96h13v13h-13zM102 115h13v13h-13zM140 115h13v13h-13zM121 134h13v13h-13z" stroke="none" fill="#F5F7F2" stroke-width="0" stroke-linecap="square" stroke-linejoin="miter"/><path d="M114 193h28v28h-28z" stroke="#B55CFF" fill="#050705" stroke-width="2" stroke-linecap="square" stroke-linejoin="miter"/><path d="M119 198h7v7h-7zM130 198h7v7h-7zM119 209h7v7h-7zM130 209h7v7h-7z" fill="#B55CFF"/><circle cx="128" cy="128" r="114" fill="none" stroke="#F5F7F2" stroke-width="3"/><circle cx="128" cy="128" r="105" fill="none" stroke="#B55CFF" stroke-width="2"/><metadata id="statics-operator-traits">W3sibGFiZWwiOiJGaWVsZCIsInZhbHVlIjoiRGF0YSBQYW5lbCIsIm1heCI6bnVsbH0seyJsYWJlbCI6IkJvdW5kYXJ5IiwidmFsdWUiOiJEb3VibGUgUmluZyIsIm1heCI6bnVsbH0seyJsYWJlbCI6IlNoZWxsIiwidmFsdWUiOiJSb3VuZCBTaGVsbCIsIm1heCI6bnVsbH0seyJsYWJlbCI6IkludGVyZmFjZSIsInZhbHVlIjoiQmFza2V0IEdyaWQiLCJtYXgiOm51bGx9LHsibGFiZWwiOiJNYW50bGUiLCJ2YWx1ZSI6IkhpZ2ggQ29sbGFyIiwibWF4IjpudWxsfSx7ImxhYmVsIjoiVGVsZW1ldHJ5IiwidmFsdWUiOiJMaW5lIEdyYXBoIiwibWF4IjpudWxsfSx7ImxhYmVsIjoiU2lnaWwiLCJ2YWx1ZSI6IkJhc2tldCBDb3JlIiwibWF4IjpudWxsfSx7ImxhYmVsIjoiU2lnbmFsIiwidmFsdWUiOiJQdXJwbGUiLCJtYXgiOm51bGx9XQ==</metadata></svg>
