<svg xmlns="http://www.w3.org/2000/svg" viewBox="0 0 256 256"><rect width="256" height="256" fill="#030504"/><path d="M48 88h9" stroke="#FFFFFF" fill="none" stroke-width="2" stroke-linecap="square" stroke-linejoin="miter"/><path d="M157 163h14" stroke="#39413A" fill="none" stroke-width="1" stroke-linecap="square" stroke-linejoin="miter"/><path d="M176 59h3" stroke="#39413A" fill="none" stroke-width="1" stroke-linecap="square" stroke-linejoin="miter"/><path d="M133 64h7" stroke="#39413A" fill="none" stroke-width="1" stroke-linecap="square" stroke-linejoin="miter"/><path d="M171 118h11" stroke="#39413A" fill="none" stroke-width="1" stroke-linecap="square" stroke-linejoin="miter"/><path d="M191 91h8" stroke="#FFFFFF" fill="none" stroke-width="1" stroke-linecap="square" stroke-linejoin="miter"/><path d="M124 39h5" stroke="#39413A" fill="none" stroke-width="1" stroke-linecap="square" stroke-linejoin="miter"/><path d="M71 70h9" stroke="#39413A" fill="none" stroke-width="2" stroke-linecap="square" stroke-linejoin="miter"/><path d="M160 28h3" stroke="#39413A" fill="none" stroke-width="1" stroke-linecap="square" stroke-linejoin="miter"/><path d="M42 136h8" stroke="#39413A" fill="none" stroke-width="1" stroke-linecap="square" stroke-linejoin="miter"/><path d="M47 127h13" stroke="#FFFFFF" fill="none" stroke-width="1" stroke-linecap="square" stroke-linejoin="miter"/><path d="M115 98h11" stroke="#39413A" fill="none" stroke-width="1" stroke-linecap="square" stroke-linejoin="miter"/><path d="M88 69h4" stroke="#39413A" fill="none" stroke-width="1" stroke-linecap="square" stroke-linejoin="miter"/><path d="M226 52h11" stroke="#39413A" fill="none" stroke-width="1" stroke-linecap="square" stroke-linejoin="miter"/><path d="M53 67h8" stroke="#39413A" fill="none" stroke-width="2" stroke-linecap="square" stroke-linejoin="miter"/><path d="M25 189h3" stroke="#FFFFFF" fill="none" stroke-width="1" stroke-linecap="square" stroke-linejoin="miter"/><path d="M133 155h13" stroke="#39413A" fill="none" stroke-width="1" stroke-linecap="square" stroke-linejoin="miter"/><path d="M124 88h7" stroke="#39413A" fill="none" stroke-width="1" stroke-linecap="square" stroke-linejoin="miter"/><path d="M95 211h11" stroke="#39413A" fill="none" stroke-width="1" stroke-linecap="square" stroke-linejoin="miter"/><path d="M66 88h13" stroke="#39413A" fill="none" stroke-width="1" stroke-linecap="square" stroke-linejoin="miter"/><path d="M35 111h5" stroke="#FFFFFF" fill="none" stroke-width="1" stroke-linecap="square" stroke-linejoin="miter"/><path d="M64 197h11" stroke="#39413A" fill="none" stroke-width="2" stroke-linecap="square" stroke-linejoin="miter"/><path d="M186 43h7" stroke="#39413A" fill="none" stroke-width="1" stroke-linecap="square" stroke-linejoin="miter"/><path d="M152 45h6" stroke="#39413A" fill="none" stroke-width="1" stroke-linecap="square" stroke-linejoin="miter"/><circle cx="38" cy="117" r="4" fill="#FFFFFF"/><circle cx="50" cy="117" r="4" fill="#F5F7F2"/><circle cx="62" cy="117" r="4" fill="#FFFFFF"/><circle cx="194" cy="117" r="4" fill="#F5F7F2"/><circle cx="206" cy="117" r="4" fill="#FFFFFF"/><circle cx="218" cy="117" r="4" fill="#F5F7F2"/><path d="M59 224L74 171L100 181H156L182 171L197 224Z" stroke="#F5F7F2" fill="#0A0D0B" stroke-width="4" stroke-linecap="square" stroke-linejoin="miter"/><path d="M76 184h25v40M180 184h-25v40M104 197h48" stroke="#FFFFFF" fill="none" stroke-width="3" stroke-linecap="square" stroke-linejoin="miter"/><path d="M54 116L72 66L101 40H155L184 66L202 116L186 188L158 205H98L70 188Z" stroke="#F5F7F2" fill="#080B09" stroke-width="4" stroke-linecap="square" stroke-linejoin="miter"/><path d="M72 66l28 26-13 91M184 66l-28 26 13 91" stroke="#FFFFFF" fill="none" stroke-width="2" stroke-linecap="square" stroke-linejoin="miter"/><path d="M92 104h29v26H92zM135 104h29v26h-29z" stroke="none" fill="#FFFFFF" stroke-width="0" stroke-linecap="square" stroke-linejoin="miter"/><path d="M121 117h14" stroke="#F5F7F2" fill="none" stroke-width="2" stroke-linecap="square" stroke-linejoin="miter"/><circle cx="128" cy="207" r="14" fill="#050705" stroke="#FFFFFF" stroke-width="2"/><path d="M133 196c-12-5-17 5-5 10s7 15-5 11M128 191v31" stroke="#FFFFFF" fill="none" stroke-width="2" stroke-linecap="square" stroke-linejoin="miter"/><circle cx="128" cy="128" r="112" stroke="#F5F7F2" fill="none" stroke-width="5" stroke-linecap="square" stroke-linejoin="miter" stroke-dasharray="38 13"/><circle cx="128" cy="128" r="103" stroke="#FFFFFF" fill="none" stroke-width="1" stroke-linecap="square" stroke-linejoin="miter" stroke-dasharray="7 18"/><metadata id="statics-operator-traits">W3sibGFiZWwiOiJGaWVsZCIsInZhbHVlIjoiU3RhdGljIEZpZWxkIiwibWF4IjpudWxsfSx7ImxhYmVsIjoiQm91bmRhcnkiLCJ2YWx1ZSI6IkJyb2tlbiBSaW5nIiwibWF4IjpudWxsfSx7ImxhYmVsIjoiU2hlbGwiLCJ2YWx1ZSI6Ik9wZXJhdG9yIEhvb2QiLCJtYXgiOm51bGx9LHsibGFiZWwiOiJJbnRlcmZhY2UiLCJ2YWx1ZSI6IkR1YWwgQmxvY2tzIiwibWF4IjpudWxsfSx7ImxhYmVsIjoiTWFudGxlIiwidmFsdWUiOiJBcm1vciBOZWNrIiwibWF4IjpudWxsfSx7ImxhYmVsIjoiVGVsZW1ldHJ5IiwidmFsdWUiOiJCYXNrZXQgSW5kaWNhdG9ycyIsIm1heCI6bnVsbH0seyJsYWJlbCI6IlNpZ2lsIiwidmFsdWUiOiJEb2xsYXIgQ29yZSIsIm1heCI6bnVsbH0seyJsYWJlbCI6IlNpZ25hbCIsInZhbHVlIjoiV2hpdGUgT25seSIsIm1heCI6bnVsbH1d</metadata></svg>
