<svg xmlns="http://www.w3.org/2000/svg" viewBox="0 0 256 256"><rect width="256" height="256" fill="#030504"/><path d="M30 48H226M30 58H198M58 68H226M30 188H201M55 198H226M30 208H183" stroke="#273028" fill="none" stroke-width="4" stroke-linecap="square" stroke-linejoin="miter"/><path d="M30 48H91M156 68H226M30 208H79" stroke="#8CFF00" fill="none" stroke-width="4" stroke-linecap="square" stroke-linejoin="miter"/><path d="M28 105h40v34H28zM188 105h40v34h-40zM35 113h26M35 122h18M195 113h26M203 122h18" stroke="#8CFF00" fill="none" stroke-width="2" stroke-linecap="square" stroke-linejoin="miter"/><path d="M35 132h8M53 132h8M195 132h8M213 132h8" stroke="#F5F7F2" fill="none" stroke-width="2" stroke-linecap="square" stroke-linejoin="miter"/><path d="M78 169L62 219H194L178 169L157 184H99Z" stroke="#F5F7F2" fill="#0A0D0B" stroke-width="3" stroke-linecap="square" stroke-linejoin="miter"/><path d="M65 92L86 51L123 39V197L91 188L70 163ZM191 92L170 51L133 39V197L165 188L186 163Z" stroke="#F5F7F2" fill="#080B09" stroke-width="4" stroke-linecap="square" stroke-linejoin="miter"/><path d="M128 39V198M86 51l27 32M170 51l-27 32" stroke="#8CFF00" fill="none" stroke-width="2" stroke-linecap="square" stroke-linejoin="miter"/><path d="M89 117H167" stroke="#8CFF00" fill="none" stroke-width="8" stroke-linecap="square" stroke-linejoin="miter"/><path d="M128 98V136" stroke="#F5F7F2" fill="none" stroke-width="2" stroke-linecap="square" stroke-linejoin="miter"/><circle cx="128" cy="117" r="5" fill="#030504" stroke="#F5F7F2" stroke-width="2"/><path d="M128 190l5 11 12 1-9 8 3 12-11-6-11 6 3-12-9-8 12-1Z" stroke="#8CFF00" fill="#050705" stroke-width="2" stroke-linecap="square" stroke-linejoin="miter"/><path d="M46 17H210L239 46V210L210 239H46L17 210V46Z" stroke="#F5F7F2" fill="none" stroke-width="4" stroke-linecap="square" stroke-linejoin="miter"/><path d="M75 25h106M75 231h106M25 75v106M231 75v106" stroke="#8CFF00" fill="none" stroke-width="2" stroke-linecap="square" stroke-linejoin="miter"/><metadata id="statics-operator-traits">W3sibGFiZWwiOiJGaWVsZCIsInZhbHVlIjoiU2lnbmFsIEJhbmRzIiwibWF4IjpudWxsfSx7ImxhYmVsIjoiQm91bmRhcnkiLCJ2YWx1ZSI6IlBlZyBGcmFtZSIsIm1heCI6bnVsbH0seyJsYWJlbCI6IlNoZWxsIiwidmFsdWUiOiJTcGxpdCBIZWFkIiwibWF4IjpudWxsfSx7ImxhYmVsIjoiSW50ZXJmYWNlIiwidmFsdWUiOiJQZWcgQmFyIiwibWF4IjpudWxsfSx7ImxhYmVsIjoiTWFudGxlIiwidmFsdWUiOiJNaW5pbWFsIENvbGxhciIsIm1heCI6bnVsbH0seyJsYWJlbCI6IlRlbGVtZXRyeSIsInZhbHVlIjoiUmlzayBSZWFkb3V0IiwibWF4IjpudWxsfSx7ImxhYmVsIjoiU2lnaWwiLCJ2YWx1ZSI6IlN0YWtpbmcgU2lnaWwiLCJtYXgiOm51bGx9LHsibGFiZWwiOiJTaWduYWwiLCJ2YWx1ZSI6Ik5lb24gR3JlZW4iLCJtYXgiOm51bGx9XQ==</metadata></svg>
