<svg xmlns="http://www.w3.org/2000/svg" viewBox="0 0 256 256"><rect width="256" height="256" fill="#030504"/><circle cx="128" cy="126" r="92" fill="none" stroke="#273028" stroke-width="1"/><circle cx="128" cy="126" r="70" fill="none" stroke="#273028" stroke-width="1"/><path d="M22 126H234M128 22V230" stroke="#273028" fill="none" stroke-width="1" stroke-linecap="square" stroke-linejoin="miter"/><path d="M28 105h40v34H28zM188 105h40v34h-40zM35 113h26M35 122h18M195 113h26M203 122h18" stroke="#00E5FF" fill="none" stroke-width="2" stroke-linecap="square" stroke-linejoin="miter"/><path d="M35 132h8M53 132h8M195 132h8M213 132h8" stroke="#F5F7F2" fill="none" stroke-width="2" stroke-linecap="square" stroke-linejoin="miter"/><path d="M59 224L74 171L100 181H156L182 171L197 224Z" stroke="#F5F7F2" fill="#0A0D0B" stroke-width="4" stroke-linecap="square" stroke-linejoin="miter"/><path d="M76 184h25v40M180 184h-25v40M104 197h48" stroke="#00E5FF" fill="none" stroke-width="3" stroke-linecap="square" stroke-linejoin="miter"/><path d="M66 102L85 55L128 38L171 55L190 102L180 169L153 194H103L76 169Z" stroke="#F5F7F2" fill="#080B09" stroke-width="4" stroke-linecap="square" stroke-linejoin="miter"/><path d="M85 55l19 29h48l19-29M76 169l32-17h40l32 17" stroke="#00E5FF" fill="none" stroke-width="2" stroke-linecap="square" stroke-linejoin="miter"/><path d="M91 110H165L156 125H100Z" fill="#00E5FF"/><path d="M104 116h48" stroke="#030504" fill="none" stroke-width="3" stroke-linecap="square" stroke-linejoin="miter"/><circle cx="128" cy="128" r="109" fill="none" stroke="#F5F7F2" stroke-width="3"/><path d="M128 7v25M128 224v25M7 128h25M224 128h25M43 43l17 17M196 196l17 17M43 213l17-17M196 60l17-17" stroke="#00E5FF" fill="none" stroke-width="4" stroke-linecap="square" stroke-linejoin="miter"/><metadata id="statics-operator-traits">W3sibGFiZWwiOiJGaWVsZCIsInZhbHVlIjoiVGFyZ2V0IiwibWF4IjpudWxsfSx7ImxhYmVsIjoiQm91bmRhcnkiLCJ2YWx1ZSI6IlJldGljbGUgUmluZyIsIm1heCI6bnVsbH0seyJsYWJlbCI6IlNoZWxsIiwidmFsdWUiOiJBbmd1bGFyIEhlbG0iLCJtYXgiOm51bGx9LHsibGFiZWwiOiJJbnRlcmZhY2UiLCJ2YWx1ZSI6Ik5hcnJvdyBWaXNvciIsIm1heCI6bnVsbH0seyJsYWJlbCI6Ik1hbnRsZSIsInZhbHVlIjoiQXJtb3IgTmVjayIsIm1heCI6bnVsbH0seyJsYWJlbCI6IlRlbGVtZXRyeSIsInZhbHVlIjoiUmlzayBSZWFkb3V0IiwibWF4IjpudWxsfSx7ImxhYmVsIjoiU2lnaWwiLCJ2YWx1ZSI6IkVtcHR5IiwibWF4IjpudWxsfSx7ImxhYmVsIjoiU2lnbmFsIiwidmFsdWUiOiJDeWFuIiwibWF4IjpudWxsfV0=</metadata></svg>
