<svg xmlns="http://www.w3.org/2000/svg" viewBox="0 0 256 256"><rect width="256" height="256" fill="#030504"/><path d="M124 121h12" stroke="#B55CFF" fill="none" stroke-width="2" stroke-linecap="square" stroke-linejoin="miter"/><path d="M37 35h14" stroke="#39413A" fill="none" stroke-width="1" stroke-linecap="square" stroke-linejoin="miter"/><path d="M46 57h5" stroke="#39413A" fill="none" stroke-width="1" stroke-linecap="square" stroke-linejoin="miter"/><path d="M199 39h11" stroke="#39413A" fill="none" stroke-width="1" stroke-linecap="square" stroke-linejoin="miter"/><path d="M44 82h6" stroke="#39413A" fill="none" stroke-width="1" stroke-linecap="square" stroke-linejoin="miter"/><path d="M96 207h7" stroke="#B55CFF" fill="none" stroke-width="1" stroke-linecap="square" stroke-linejoin="miter"/><path d="M64 37h8" stroke="#39413A" fill="none" stroke-width="1" stroke-linecap="square" stroke-linejoin="miter"/><path d="M118 39h14" stroke="#39413A" fill="none" stroke-width="2" stroke-linecap="square" stroke-linejoin="miter"/><path d="M32 173h11" stroke="#39413A" fill="none" stroke-width="1" stroke-linecap="square" stroke-linejoin="miter"/><path d="M54 41h13" stroke="#39413A" fill="none" stroke-width="1" stroke-linecap="square" stroke-linejoin="miter"/><path d="M226 122h6" stroke="#B55CFF" fill="none" stroke-width="1" stroke-linecap="square" stroke-linejoin="miter"/><path d="M79 58h3" stroke="#39413A" fill="none" stroke-width="1" stroke-linecap="square" stroke-linejoin="miter"/><path d="M204 137h10" stroke="#39413A" fill="none" stroke-width="1" stroke-linecap="square" stroke-linejoin="miter"/><path d="M34 65h6" stroke="#39413A" fill="none" stroke-width="1" stroke-linecap="square" stroke-linejoin="miter"/><path d="M36 28h15" stroke="#39413A" fill="none" stroke-width="2" stroke-linecap="square" stroke-linejoin="miter"/><path d="M170 30h10" stroke="#B55CFF" fill="none" stroke-width="1" stroke-linecap="square" stroke-linejoin="miter"/><path d="M228 36h6" stroke="#39413A" fill="none" stroke-width="1" stroke-linecap="square" stroke-linejoin="miter"/><path d="M119 72h9" stroke="#39413A" fill="none" stroke-width="1" stroke-linecap="square" stroke-linejoin="miter"/><path d="M55 61h14" stroke="#39413A" fill="none" stroke-width="1" stroke-linecap="square" stroke-linejoin="miter"/><path d="M134 44h11" stroke="#39413A" fill="none" stroke-width="1" stroke-linecap="square" stroke-linejoin="miter"/><path d="M62 196h15" stroke="#B55CFF" fill="none" stroke-width="1" stroke-linecap="square" stroke-linejoin="miter"/><path d="M215 100h7" stroke="#39413A" fill="none" stroke-width="2" stroke-linecap="square" stroke-linejoin="miter"/><path d="M217 83h8" stroke="#39413A" fill="none" stroke-width="1" stroke-linecap="square" stroke-linejoin="miter"/><path d="M223 112h5" stroke="#39413A" fill="none" stroke-width="1" stroke-linecap="square" stroke-linejoin="miter"/><path d="M29 102h39v12H29zM29 120h27v9H29zM188 96h39v12h-39zM199 114h28v9h-28z" stroke="#B55CFF" fill="none" stroke-width="2" stroke-linecap="square" stroke-linejoin="miter"/><path d="M51 226L74 169L111 185V226ZM205 226L182 169L145 185V226Z" stroke="#F5F7F2" fill="#0A0D0B" stroke-width="3" stroke-linecap="square" stroke-linejoin="miter"/><path d="M128 180V228M79 177l29 29M177 177l-29 29" stroke="#B55CFF" fill="none" stroke-width="3" stroke-linecap="square" stroke-linejoin="miter"/><path d="M55 79L84 44H172L201 79L190 181L162 205H94L66 181Z" stroke="#F5F7F2" fill="#080B09" stroke-width="6" stroke-linecap="square" stroke-linejoin="miter"/><path d="M84 44l18 35h52l18-35M66 181l35-32h54l35 32" stroke="#B55CFF" fill="none" stroke-width="3" stroke-linecap="square" stroke-linejoin="miter"/><path d="M91 110H165L156 125H100Z" fill="#B55CFF"/><path d="M104 116h48" stroke="#030504" fill="none" stroke-width="3" stroke-linecap="square" stroke-linejoin="miter"/><circle cx="128" cy="207" r="14" fill="#050705" stroke="#B55CFF" stroke-width="2"/><path d="M116 212c5-16 19-16 24 0M119 202h18" stroke="#B55CFF" fill="none" stroke-width="2" stroke-linecap="square" stroke-linejoin="miter"/><circle cx="128" cy="128" r="114" fill="none" stroke="#F5F7F2" stroke-width="3"/><circle cx="128" cy="128" r="105" fill="none" stroke="#B55CFF" stroke-width="2"/><metadata id="statics-operator-traits">W3sibGFiZWwiOiJGaWVsZCIsInZhbHVlIjoiU3RhdGljIEZpZWxkIiwibWF4IjpudWxsfSx7ImxhYmVsIjoiQm91bmRhcnkiLCJ2YWx1ZSI6IkRvdWJsZSBSaW5nIiwibWF4IjpudWxsfSx7ImxhYmVsIjoiU2hlbGwiLCJ2YWx1ZSI6IkhlYXZ5IFBsYXRlIiwibWF4IjpudWxsfSx7ImxhYmVsIjoiSW50ZXJmYWNlIiwidmFsdWUiOiJOYXJyb3cgVmlzb3IiLCJtYXgiOm51bGx9LHsibGFiZWwiOiJNYW50bGUiLCJ2YWx1ZSI6IlNwbGl0IE1hbnRsZSIsIm1heCI6bnVsbH0seyJsYWJlbCI6IlRlbGVtZXRyeSIsInZhbHVlIjoiTWV0cmljIEJsb2NrcyIsIm1heCI6bnVsbH0seyJsYWJlbCI6IlNpZ2lsIiwidmFsdWUiOiJMaXF1aWRpdHkgTWFyayIsIm1heCI6bnVsbH0seyJsYWJlbCI6IlNpZ25hbCIsInZhbHVlIjoiUHVycGxlIiwibWF4IjpudWxsfV0=</metadata></svg>
