<svg xmlns="http://www.w3.org/2000/svg" viewBox="0 0 256 256"><rect width="256" height="256" fill="#030504"/><path d="M202 28h3" stroke="#FF3344" fill="none" stroke-width="2" stroke-linecap="square" stroke-linejoin="miter"/><path d="M109 28h8" stroke="#39413A" fill="none" stroke-width="1" stroke-linecap="square" stroke-linejoin="miter"/><path d="M34 150h6" stroke="#39413A" fill="none" stroke-width="1" stroke-linecap="square" stroke-linejoin="miter"/><path d="M178 208h6" stroke="#39413A" fill="none" stroke-width="1" stroke-linecap="square" stroke-linejoin="miter"/><path d="M47 83h10" stroke="#39413A" fill="none" stroke-width="1" stroke-linecap="square" stroke-linejoin="miter"/><path d="M51 206h12" stroke="#FF3344" fill="none" stroke-width="1" stroke-linecap="square" stroke-linejoin="miter"/><path d="M91 80h4" stroke="#39413A" fill="none" stroke-width="1" stroke-linecap="square" stroke-linejoin="miter"/><path d="M215 77h10" stroke="#39413A" fill="none" stroke-width="2" stroke-linecap="square" stroke-linejoin="miter"/><path d="M215 187h5" stroke="#39413A" fill="none" stroke-width="1" stroke-linecap="square" stroke-linejoin="miter"/><path d="M147 49h9" stroke="#39413A" fill="none" stroke-width="1" stroke-linecap="square" stroke-linejoin="miter"/><path d="M205 87h14" stroke="#FF3344" fill="none" stroke-width="1" stroke-linecap="square" stroke-linejoin="miter"/><path d="M80 89h13" stroke="#39413A" fill="none" stroke-width="1" stroke-linecap="square" stroke-linejoin="miter"/><path d="M203 185h10" stroke="#39413A" fill="none" stroke-width="1" stroke-linecap="square" stroke-linejoin="miter"/><path d="M77 35h3" stroke="#39413A" fill="none" stroke-width="1" stroke-linecap="square" stroke-linejoin="miter"/><path d="M60 212h11" stroke="#39413A" fill="none" stroke-width="2" stroke-linecap="square" stroke-linejoin="miter"/><path d="M184 65h3" stroke="#FF3344" fill="none" stroke-width="1" stroke-linecap="square" stroke-linejoin="miter"/><path d="M32 208h4" stroke="#39413A" fill="none" stroke-width="1" stroke-linecap="square" stroke-linejoin="miter"/><path d="M84 155h13" stroke="#39413A" fill="none" stroke-width="1" stroke-linecap="square" stroke-linejoin="miter"/><path d="M86 191h7" stroke="#39413A" fill="none" stroke-width="1" stroke-linecap="square" stroke-linejoin="miter"/><path d="M182 145h11" stroke="#39413A" fill="none" stroke-width="1" stroke-linecap="square" stroke-linejoin="miter"/><path d="M32 41h9" stroke="#FF3344" fill="none" stroke-width="1" stroke-linecap="square" stroke-linejoin="miter"/><path d="M209 28h8" stroke="#39413A" fill="none" stroke-width="2" stroke-linecap="square" stroke-linejoin="miter"/><path d="M48 81h13" stroke="#39413A" fill="none" stroke-width="1" stroke-linecap="square" stroke-linejoin="miter"/><path d="M205 51h12" stroke="#39413A" fill="none" stroke-width="1" stroke-linecap="square" stroke-linejoin="miter"/><path d="M29 102h39v12H29zM29 120h27v9H29zM188 96h39v12h-39zM199 114h28v9h-28z" stroke="#FF3344" fill="none" stroke-width="2" stroke-linecap="square" stroke-linejoin="miter"/><path d="M52 226L67 164L91 146L105 178H151L165 146L189 164L204 226Z" stroke="#F5F7F2" fill="#0A0D0B" stroke-width="3" stroke-linecap="square" stroke-linejoin="miter"/><path d="M67 164L98 194M189 164L158 194" stroke="#FF3344" fill="none" stroke-width="2" stroke-linecap="square" stroke-linejoin="miter"/><path d="M82 54L109 40H147L174 54L185 101L174 177L151 194H105L82 177L71 101Z" stroke="#F5F7F2" fill="#080B09" stroke-width="3" stroke-linecap="square" stroke-linejoin="miter"/><path d="M90 60l20 19h36l20-19M83 168l31-17h28l31 17" stroke="#FF3344" fill="none" stroke-width="2" stroke-linecap="square" stroke-linejoin="miter"/><path d="M108 99V138M148 99V138" stroke="#FF3344" fill="none" stroke-width="8" stroke-linecap="square" stroke-linejoin="miter"/><circle cx="128" cy="207" r="14" fill="#050705" stroke="#FF3344" stroke-width="2"/><path d="M116 212c5-16 19-16 24 0M119 202h18" stroke="#FF3344" fill="none" stroke-width="2" stroke-linecap="square" stroke-linejoin="miter"/><path d="M46 17H210L239 46V210L210 239H46L17 210V46Z" stroke="#F5F7F2" fill="none" stroke-width="4" stroke-linecap="square" stroke-linejoin="miter"/><path d="M75 25h106M75 231h106M25 75v106M231 75v106" stroke="#FF3344" fill="none" stroke-width="2" stroke-linecap="square" stroke-linejoin="miter"/><metadata id="statics-operator-traits">W3sibGFiZWwiOiJGaWVsZCIsInZhbHVlIjoiU3RhdGljIEZpZWxkIiwibWF4IjpudWxsfSx7ImxhYmVsIjoiQm91bmRhcnkiLCJ2YWx1ZSI6IlBlZyBGcmFtZSIsIm1heCI6bnVsbH0seyJsYWJlbCI6IlNoZWxsIiwidmFsdWUiOiJTbGltIE1hc2siLCJtYXgiOm51bGx9LHsibGFiZWwiOiJJbnRlcmZhY2UiLCJ2YWx1ZSI6IkRvdWJsZSBQaXBlIiwibWF4IjpudWxsfSx7ImxhYmVsIjoiTWFudGxlIiwidmFsdWUiOiJIb29kIFdyYXAiLCJtYXgiOm51bGx9LHsibGFiZWwiOiJUZWxlbWV0cnkiLCJ2YWx1ZSI6Ik1ldHJpYyBCbG9ja3MiLCJtYXgiOm51bGx9LHsibGFiZWwiOiJTaWdpbCIsInZhbHVlIjoiTGlxdWlkaXR5IE1hcmsiLCJtYXgiOm51bGx9LHsibGFiZWwiOiJTaWduYWwiLCJ2YWx1ZSI6IlJlZCIsIm1heCI6bnVsbH1d</metadata></svg>
