<svg xmlns="http://www.w3.org/2000/svg" viewBox="0 0 256 256"><rect width="256" height="256" fill="#030504"/><path d="M28 38H91V78H28ZM165 38H228V78H165ZM28 180H76V220H28Z" stroke="#273028" fill="none" stroke-width="1" stroke-linecap="square" stroke-linejoin="miter"/><path d="M37 50h36M37 59h24M174 50h35M174 59h20M37 192h28M37 201h18" stroke="#FFFFFF" fill="none" stroke-width="2" stroke-linecap="square" stroke-linejoin="miter"/><path d="M29 102h39v12H29zM29 120h27v9H29zM188 96h39v12h-39zM199 114h28v9h-28z" stroke="#FFFFFF" fill="none" stroke-width="2" stroke-linecap="square" stroke-linejoin="miter"/><path d="M51 226L74 169L111 185V226ZM205 226L182 169L145 185V226Z" stroke="#F5F7F2" fill="#0A0D0B" stroke-width="3" stroke-linecap="square" stroke-linejoin="miter"/><path d="M128 180V228M79 177l29 29M177 177l-29 29" stroke="#FFFFFF" fill="none" stroke-width="3" stroke-linecap="square" stroke-linejoin="miter"/><path d="M65 92L86 51L123 39V197L91 188L70 163ZM191 92L170 51L133 39V197L165 188L186 163Z" stroke="#F5F7F2" fill="#080B09" stroke-width="4" stroke-linecap="square" stroke-linejoin="miter"/><path d="M128 39V198M86 51l27 32M170 51l-27 32" stroke="#FFFFFF" fill="none" stroke-width="2" stroke-linecap="square" stroke-linejoin="miter"/><path d="M108 99V138M148 99V138" stroke="#FFFFFF" fill="none" stroke-width="8" stroke-linecap="square" stroke-linejoin="miter"/><path d="M114 201l14-10 14 10-5 17h-18Z" stroke="#FFFFFF" fill="#050705" stroke-width="2" stroke-linecap="square" stroke-linejoin="miter"/><circle cx="128" cy="205" r="4" fill="#FFFFFF"/><path d="M128 10L224 40V124C224 184 184 226 128 245C72 226 32 184 32 124V40Z" stroke="#F5F7F2" fill="none" stroke-width="4" stroke-linecap="square" stroke-linejoin="miter"/><path d="M128 21L213 48" stroke="#FFFFFF" fill="none" stroke-width="2" stroke-linecap="square" stroke-linejoin="miter"/><metadata id="statics-operator-traits">W3sibGFiZWwiOiJGaWVsZCIsInZhbHVlIjoiRGF0YSBQYW5lbCIsIm1heCI6bnVsbH0seyJsYWJlbCI6IkJvdW5kYXJ5IiwidmFsdWUiOiJTaGllbGQgUmluZyIsIm1heCI6bnVsbH0seyJsYWJlbCI6IlNoZWxsIiwidmFsdWUiOiJTcGxpdCBIZWFkIiwibWF4IjpudWxsfSx7ImxhYmVsIjoiSW50ZXJmYWNlIiwidmFsdWUiOiJEb3VibGUgUGlwZSIsIm1heCI6bnVsbH0seyJsYWJlbCI6Ik1hbnRsZSIsInZhbHVlIjoiU3BsaXQgTWFudGxlIiwibWF4IjpudWxsfSx7ImxhYmVsIjoiVGVsZW1ldHJ5IiwidmFsdWUiOiJNZXRyaWMgQmxvY2tzIiwibWF4IjpudWxsfSx7ImxhYmVsIjoiU2lnaWwiLCJ2YWx1ZSI6IlBvc2l0aW9uIEtleSIsIm1heCI6bnVsbH0seyJsYWJlbCI6IlNpZ25hbCIsInZhbHVlIjoiV2hpdGUgT25seSIsIm1heCI6bnVsbH1d</metadata></svg>
