<svg xmlns="http://www.w3.org/2000/svg" viewBox="0 0 256 256"><rect width="256" height="256" fill="#030504"/><path d="M32 24V232M24 32H232" stroke="#273028" fill="none" stroke-width="1" stroke-linecap="square" stroke-linejoin="miter"/><path d="M56 24V232M24 56H232" stroke="#273028" fill="none" stroke-width="1" stroke-linecap="square" stroke-linejoin="miter"/><path d="M80 24V232M24 80H232" stroke="#273028" fill="none" stroke-width="1" stroke-linecap="square" stroke-linejoin="miter"/><path d="M104 24V232M24 104H232" stroke="#273028" fill="none" stroke-width="1" stroke-linecap="square" stroke-linejoin="miter"/><path d="M128 24V232M24 128H232" stroke="#273028" fill="none" stroke-width="1" stroke-linecap="square" stroke-linejoin="miter"/><path d="M152 24V232M24 152H232" stroke="#273028" fill="none" stroke-width="1" stroke-linecap="square" stroke-linejoin="miter"/><path d="M176 24V232M24 176H232" stroke="#273028" fill="none" stroke-width="1" stroke-linecap="square" stroke-linejoin="miter"/><path d="M200 24V232M24 200H232" stroke="#273028" fill="none" stroke-width="1" stroke-linecap="square" stroke-linejoin="miter"/><path d="M224 24V232M24 224H232" stroke="#273028" fill="none" stroke-width="1" stroke-linecap="square" stroke-linejoin="miter"/><path d="M29 102h39v12H29zM29 120h27v9H29zM188 96h39v12h-39zM199 114h28v9h-28z" stroke="#00E5FF" fill="none" stroke-width="2" stroke-linecap="square" stroke-linejoin="miter"/><path d="M47 227L67 173L98 181H158L189 173L209 227Z" stroke="#F5F7F2" fill="#0A0D0B" stroke-width="3" stroke-linecap="square" stroke-linejoin="miter"/><path d="M64 195h128M58 211h140M88 183l-11 44M168 183l11 44" stroke="#555F56" fill="none" stroke-width="2" stroke-linecap="square" stroke-linejoin="miter"/><path d="M64 58H192V181L166 199H90L64 181Z" stroke="#F5F7F2" fill="#080B09" stroke-width="4" stroke-linecap="square" stroke-linejoin="miter"/><path d="M75 73h106v73H75zM90 181h76" stroke="#00E5FF" fill="none" stroke-width="2" stroke-linecap="square" stroke-linejoin="miter"/><path d="M102 96h13v13h-13zM140 96h13v13h-13zM121 115h13v13h-13zM102 134h13v13h-13zM140 134h13v13h-13z" stroke="none" fill="#00E5FF" stroke-width="0" stroke-linecap="square" stroke-linejoin="miter"/><path d="M121 96h13v13h-13zM102 115h13v13h-13zM140 115h13v13h-13zM121 134h13v13h-13z" stroke="none" fill="#F5F7F2" stroke-width="0" stroke-linecap="square" stroke-linejoin="miter"/><circle cx="128" cy="207" r="14" fill="#050705" stroke="#00E5FF" stroke-width="2"/><path d="M133 196c-12-5-17 5-5 10s7 15-5 11M128 191v31" stroke="#00E5FF" fill="none" stroke-width="2" stroke-linecap="square" stroke-linejoin="miter"/><path d="M46 17H210L239 46V210L210 239H46L17 210V46Z" stroke="#F5F7F2" fill="none" stroke-width="4" stroke-linecap="square" stroke-linejoin="miter"/><path d="M75 25h106M75 231h106M25 75v106M231 75v106" stroke="#00E5FF" fill="none" stroke-width="2" stroke-linecap="square" stroke-linejoin="miter"/><metadata id="statics-operator-traits">W3sibGFiZWwiOiJGaWVsZCIsInZhbHVlIjoiR3JpZCIsIm1heCI6bnVsbH0seyJsYWJlbCI6IkJvdW5kYXJ5IiwidmFsdWUiOiJQZWcgRnJhbWUiLCJtYXgiOm51bGx9LHsibGFiZWwiOiJTaGVsbCIsInZhbHVlIjoiQm94IFZpc29yIiwibWF4IjpudWxsfSx7ImxhYmVsIjoiSW50ZXJmYWNlIiwidmFsdWUiOiJCYXNrZXQgR3JpZCIsIm1heCI6bnVsbH0seyJsYWJlbCI6Ik1hbnRsZSIsInZhbHVlIjoiVGFjdGljYWwgQ29hdCIsIm1heCI6bnVsbH0seyJsYWJlbCI6IlRlbGVtZXRyeSIsInZhbHVlIjoiTWV0cmljIEJsb2NrcyIsIm1heCI6bnVsbH0seyJsYWJlbCI6IlNpZ2lsIiwidmFsdWUiOiJEb2xsYXIgQ29yZSIsIm1heCI6bnVsbH0seyJsYWJlbCI6IlNpZ25hbCIsInZhbHVlIjoiQ3lhbiIsIm1heCI6bnVsbH1d</metadata></svg>
